<svg width="23" height="22" viewBox="0 0 23 22" fill="none" xmlns="http://www.w3.org/2000/svg">
<g clip-path="url(#clip0_110_21)">
<path fill-rule="evenodd" clip-rule="evenodd" d="M5.41867 12.0828C10.0008 12.0828 10.2046 13.5226 10.2046 16.5169C10.2046 18.0172 10.2046 19.0845 9.52447 19.866C8.74182 20.7664 7.31729 20.951 5.41867 20.951C3.52004 20.951 2.09551 20.7664 1.31286 19.866C0.63269 19.0845 0.63269 18.0182 0.63269 16.543L1.47727 16.5169H0.63269C0.63269 13.5226 0.836517 12.0828 5.41867 12.0828ZM17.8059 12.0828C22.388 12.0828 22.5919 13.5226 22.5919 16.5169C22.5919 18.0172 22.5919 19.0845 21.9117 19.866C21.1291 20.7664 19.7045 20.951 17.8059 20.951C15.9073 20.951 14.4827 20.7664 13.7001 19.866C13.0199 19.0845 13.0199 18.0182 13.0199 16.543L13.8645 16.5169H13.0199C13.0199 13.5226 13.2237 12.0828 17.8059 12.0828ZM5.65083 13.6482L5.41867 13.6478C2.48067 13.6478 2.33 13.8431 2.32228 16.1278L2.32275 17.0179C2.32809 17.9266 2.36546 18.583 2.62703 18.8852C2.92545 19.2275 3.8117 19.386 5.41867 19.386C7.02563 19.386 7.91188 19.2264 8.2103 18.8842C8.51547 18.5326 8.51547 17.6979 8.51547 16.5419C8.51547 13.9334 8.51547 13.6605 5.65083 13.6482ZM18.0381 13.6482L17.8059 13.6478C14.8679 13.6478 14.7172 13.8431 14.7095 16.1278L14.71 17.0179C14.7153 17.9266 14.7527 18.583 15.0143 18.8852C15.3127 19.2275 16.1989 19.386 17.8059 19.386C19.4129 19.386 20.2991 19.2264 20.5975 18.8842C20.9027 18.5326 20.9027 17.6979 20.9027 16.5419C20.9027 13.9334 20.9027 13.6605 18.0381 13.6482ZM5.41867 0.606201C10.0008 0.606201 10.2046 2.04599 10.2046 5.04033C10.2046 6.54063 10.2046 7.60795 9.52447 8.3894C8.74182 9.28979 7.31729 9.47446 5.41867 9.47446C3.52004 9.47446 2.09551 9.28979 1.31286 8.3894C0.63269 7.60795 0.63269 6.54167 0.63269 5.06641L1.47727 5.04033H0.63269C0.63269 2.04599 0.836517 0.606201 5.41867 0.606201ZM17.8059 0.606201C22.388 0.606201 22.5919 2.04599 22.5919 5.04033C22.5919 6.54063 22.5919 7.60795 21.9117 8.3894C21.1291 9.28979 19.7045 9.47446 17.8059 9.47446C15.9073 9.47446 14.4827 9.28979 13.7001 8.3894C13.0199 7.60795 13.0199 6.54167 13.0199 5.06641L13.8645 5.04033H13.0199C13.0199 2.04599 13.2237 0.606201 17.8059 0.606201ZM5.65083 2.17165L5.41867 2.17119C2.48067 2.17119 2.33 2.36651 2.32228 4.65122L2.32275 5.54132C2.32809 6.45001 2.36546 7.10641 2.62703 7.40868C2.92545 7.75089 3.8117 7.90947 5.41867 7.90947C7.02563 7.90947 7.91188 7.74984 8.2103 7.40763C8.51547 7.05603 8.51547 6.22137 8.51547 5.06537C8.51547 2.45685 8.51547 2.18393 5.65083 2.17165ZM18.0381 2.17165L17.8059 2.17119C14.8679 2.17119 14.7172 2.36651 14.7095 4.65122L14.71 5.54132C14.7153 6.45001 14.7527 7.10641 15.0143 7.40868C15.3127 7.75089 16.1989 7.90947 17.8059 7.90947C19.4129 7.90947 20.2991 7.74984 20.5975 7.40763C20.9027 7.05603 20.9027 6.22137 20.9027 5.06537C20.9027 2.45685 20.9027 2.18393 18.0381 2.17165Z" 
fill="#fff"/>
</g>
<defs>
<clipPath id="clip0_110_21">
<rect width="21.9592" height="20.8534" fill="white" transform="translate(0.63269 0.310303)"/>
</clipPath>
</defs>
</svg>
