<svg width="23" height="21" viewBox="0 0 23 21" fill="none" xmlns="http://www.w3.org/2000/svg">
<g clip-path="url(#clip0_110_27)">
<path fill-rule="evenodd" clip-rule="evenodd" d="M16.3212 0.379395C20.0257 0.379395 22.5147 2.7886 22.5147 6.37402V14.7296C22.5147 18.315 20.0257 20.7242 16.3212 20.7242H6.74905C3.04459 20.7242 0.555542 18.315 0.555542 14.7296V6.37402C0.555542 2.7886 3.04459 0.379395 6.74905 0.379395H16.3212ZM16.3212 1.7988H6.74905C3.91785 1.7988 2.08758 3.59388 2.08758 6.37402V14.7296C2.08758 17.5097 3.91785 19.3048 6.74905 19.3048H16.3212C19.1534 19.3048 20.9827 17.5097 20.9827 14.7296V6.37402C20.9827 3.59388 19.1534 1.7988 16.3212 1.7988ZM6.80737 8.14118C7.23021 8.14118 7.57339 8.45913 7.57339 8.85089V15.3423C7.57339 15.7341 7.23021 16.052 6.80737 16.052C6.38453 16.052 6.04135 15.7341 6.04135 15.3423V8.85089C6.04135 8.45913 6.38453 8.14118 6.80737 8.14118ZM11.574 5.03363C11.9969 5.03363 12.3401 5.35158 12.3401 5.74333V15.3414C12.3401 15.7331 11.9969 16.0511 11.574 16.0511C11.1512 16.0511 10.808 15.7331 10.808 15.3414V5.74333C10.808 5.35158 11.1512 5.03363 11.574 5.03363ZM16.2624 11.5714C16.6852 11.5714 17.0284 11.8894 17.0284 12.2811V15.3414C17.0284 15.7331 16.6852 16.0511 16.2624 16.0511C15.8395 16.0511 15.4964 15.7331 15.4964 15.3414V12.2811C15.4964 11.8894 15.8395 11.5714 16.2624 11.5714Z" fill="#F9F9F9"/>
</g>
<defs>
<clipPath id="clip0_110_27">
<rect width="21.9592" height="20.3448" fill="white" transform="translate(0.555542 0.379395)"/>
</clipPath>
</defs>
</svg>
