<svg width="23" height="21" viewBox="0 0 23 21" fill="none" xmlns="http://www.w3.org/2000/svg">
<g clip-path="url(#clip0_110_33)">
<path fill-rule="evenodd" clip-rule="evenodd" d="M7.57173 10.6509C10.5536 10.6509 14.5181 10.962 14.5181 13.6534C14.5181 16.4886 9.89858 16.6587 7.91704 16.6689L7.1976 16.6689C5.08479 16.6587 0.625305 16.4896 0.625305 13.6704C0.625305 10.832 5.24487 10.6617 7.22641 10.6515L7.46449 10.6509C7.50159 10.6509 7.53736 10.6509 7.57173 10.6509ZM7.57173 11.9224C5.02904 11.9224 1.99775 12.225 1.99775 13.6704C1.99775 14.8165 3.87343 15.398 7.57173 15.398C11.27 15.398 13.1457 14.8105 13.1457 13.6534C13.1457 12.5048 11.27 11.9224 7.57173 11.9224ZM15.9114 10.2549C18.3873 10.5982 18.9061 11.6604 18.9061 12.4903C18.9061 13.1083 18.6178 13.9449 17.2426 14.4273C17.163 14.4553 17.0807 14.4688 16.9993 14.4688C16.722 14.4688 16.4613 14.312 16.3579 14.0585C16.2234 13.7305 16.4018 13.3626 16.7559 13.2388C17.5336 12.9658 17.5336 12.6327 17.5336 12.4903C17.5336 12.0096 16.9197 11.6807 15.7092 11.5137C15.334 11.4612 15.0751 11.1374 15.1309 10.7906C15.1876 10.4431 15.5435 10.21 15.9114 10.2549ZM7.57173 0.514893C10.162 0.514893 12.2701 2.468 12.2701 4.86784C12.2756 6.0241 11.7916 7.11594 10.9095 7.93821C10.0293 8.76133 8.85359 9.21655 7.60284 9.22078H7.57173C4.98054 9.22078 2.87246 7.26768 2.87246 4.86784C2.87246 2.468 4.98054 0.514893 7.57173 0.514893ZM14.0566 1.46754C15.8545 1.7405 17.1593 3.16548 17.1593 4.85495C17.1556 6.55459 15.7859 8.01433 13.9725 8.25C13.9404 8.25423 13.9084 8.25593 13.8764 8.25593C13.5397 8.25593 13.246 8.0262 13.1975 7.70831C13.1453 7.36076 13.4061 7.03863 13.7812 6.99031C14.9231 6.84196 15.785 5.9239 15.7868 4.85411C15.7868 3.79109 14.9652 2.89422 13.8352 2.72298C13.461 2.66534 13.2076 2.33898 13.2689 1.99227C13.3302 1.64556 13.6842 1.41244 14.0566 1.46754ZM7.57173 1.78644C5.73722 1.78644 4.24491 3.16905 4.24491 4.86784C4.24491 6.56663 5.73722 7.94923 7.57173 7.94923H7.60009C8.48212 7.94584 9.31291 7.62456 9.936 7.04219C10.56 6.46152 10.9013 5.68926 10.8977 4.87038C10.8977 3.16904 9.40532 1.78644 7.57173 1.78644Z" fill="#F9F9F9"/>
</g>
<defs>
<clipPath id="clip0_110_33">
<rect width="21.9592" height="20.3448" fill="white" transform="translate(0.168701 0.413818)"/>
</clipPath>
</defs>
</svg>
