<svg width="22" height="21" viewBox="0 0 22 21" fill="none" xmlns="http://www.w3.org/2000/svg">
<path fill-rule="evenodd" clip-rule="evenodd" d="M10.8851 1.36499C13.4009 1.36499 15.7652 2.31187 17.541 4.03186C21.2117 7.58542 21.2117 13.3667 17.541 16.9203C15.7415 18.6632 13.3186 19.5855 10.8641 19.5855C9.52614 19.5855 8.17939 19.3117 6.91932 18.7471C6.54805 18.603 6.20041 18.4674 5.95085 18.4674C5.66364 18.4691 5.27748 18.5979 4.90445 18.7225C4.13913 18.9768 3.18642 19.2939 2.48152 18.614C1.77925 17.9333 2.10324 17.0136 2.36419 16.2735C2.49291 15.909 2.62513 15.5326 2.62513 15.2478C2.62513 15.0138 2.50867 14.7154 2.33004 14.2857C0.689941 10.8567 1.44826 6.72416 4.2302 4.03271C6.00602 2.31272 8.3694 1.36499 10.8851 1.36499ZM10.886 2.63654C8.72054 2.63654 6.6864 3.45203 5.15839 4.93212C2.76436 7.24804 2.11287 10.8041 3.53581 13.7821C3.74071 14.2729 3.93861 14.751 3.93861 15.2478C3.93861 15.7437 3.7626 16.243 3.60761 16.6838C3.47977 17.0466 3.28625 17.5942 3.41059 17.7146C3.53231 17.8367 4.10148 17.6442 4.47713 17.5196C4.92809 17.3704 5.43947 17.1992 5.94648 17.1958C6.45435 17.1958 6.93334 17.3823 7.44034 17.5798C10.5463 18.9701 14.2196 18.3377 16.6128 16.0217C19.7704 12.9632 19.7704 7.98808 16.6128 4.93127C15.0839 3.45118 13.0506 2.63654 10.886 2.63654ZM14.3421 9.97992C14.8255 9.97992 15.2178 10.3588 15.2178 10.8276C15.2178 11.2964 14.8255 11.6753 14.3421 11.6753C13.8588 11.6753 13.463 11.2964 13.463 10.8276C13.463 10.3588 13.8509 9.97992 14.3343 9.97992H14.3421ZM10.8318 9.97992C11.3152 9.97992 11.7075 10.3588 11.7075 10.8276C11.7075 11.2964 11.3152 11.6753 10.8318 11.6753C10.3485 11.6753 9.95267 11.2964 9.95267 10.8276C9.95267 10.3588 10.3397 9.97992 10.8239 9.97992H10.8318ZM7.32116 9.97992C7.80452 9.97992 8.19681 10.3588 8.19681 10.8276C8.19681 11.2964 7.80452 11.6753 7.32116 11.6753C6.8378 11.6753 6.44201 11.2964 6.44201 10.8276C6.44201 10.3588 6.82992 9.97992 7.31328 9.97992H7.32116Z" fill="#F9F9F9"/>
</svg>
