<svg width="22" height="22" viewBox="0 0 22 22" fill="none" xmlns="http://www.w3.org/2000/svg">
<g clip-path="url(#clip0_110_51)">
<path fill-rule="evenodd" clip-rule="evenodd" d="M14.8791 0.215088C18.4115 0.215088 20.7844 2.5301 20.7844 5.97521V15.8632C20.7844 19.3384 18.4845 21.5986 14.9252 21.6201L6.28188 21.6233C2.7495 21.6233 0.375488 19.3083 0.375488 15.8632V5.97521C0.375488 2.49892 2.67535 0.239819 6.23469 0.219389L14.878 0.215088H14.8791ZM14.8791 1.82797L6.2403 1.83227C3.62473 1.84732 2.06078 3.39568 2.06078 5.97521V15.8632C2.06078 18.46 3.63934 20.0105 6.28075 20.0105L14.9196 20.0072C17.5351 19.9922 19.0991 18.4417 19.0991 15.8632V5.97521C19.0991 3.37848 17.5217 1.82797 14.8791 1.82797ZM14.6624 14.7027C15.1275 14.7027 15.505 15.064 15.505 15.5091C15.505 15.9543 15.1275 16.3156 14.6624 16.3156H6.55051C6.08537 16.3156 5.70786 15.9543 5.70786 15.5091C5.70786 15.064 6.08537 14.7027 6.55051 14.7027H14.6624ZM14.6624 10.2012C15.1275 10.2012 15.505 10.5625 15.505 11.0076C15.505 11.4528 15.1275 11.814 14.6624 11.814H6.55051C6.08537 11.814 5.70786 11.4528 5.70786 11.0076C5.70786 10.5625 6.08537 10.2012 6.55051 10.2012H14.6624ZM9.64549 5.71005C10.1106 5.71005 10.4881 6.07134 10.4881 6.51649C10.4881 6.96165 10.1106 7.32293 9.64549 7.32293H6.55017C6.08503 7.32293 5.70753 6.96165 5.70753 6.51649C5.70753 6.07134 6.08503 5.71005 6.55017 5.71005H9.64549Z" fill="#F9F9F9"/>
</g>
<defs>
<clipPath id="clip0_110_51">
<rect width="20.898" height="21.9351" fill="white" transform="translate(0.375488)"/>
</clipPath>
</defs>
</svg>
