<svg width="21" height="21" viewBox="0 0 21 21" fill="none" xmlns="http://www.w3.org/2000/svg">
<path fill-rule="evenodd" clip-rule="evenodd" d="M9.49212 0.0364C9.90612 0.0364 10.2421 0.3724 10.2421 0.7864C10.2421 1.2004 9.90612 1.5364 9.49212 1.5364H5.75312C3.16912 1.5364 1.50012 3.3064 1.50012 6.0454V14.3594C1.50012 17.0984 3.16912 18.8684 5.75312 18.8684H14.5771C17.1611 18.8684 18.8311 17.0984 18.8311 14.3594V10.3314C18.8311 9.9174 19.1671 9.5814 19.5811 9.5814C19.9951 9.5814 20.3311 9.9174 20.3311 10.3314V14.3594C20.3311 17.9534 18.0181 20.3684 14.5771 20.3684H5.75312C2.31212 20.3684 0.00012207 17.9534 0.00012207 14.3594V6.0454C0.00012207 2.4514 2.31212 0.0364 5.75312 0.0364H9.49212ZM18.2017 0.915L19.4187 2.132C20.0117 2.724 20.3377 3.511 20.3367 4.349C20.3367 5.187 20.0107 5.973 19.4187 6.564L11.9097 14.073C11.3587 14.624 10.6247 14.928 9.84472 14.928H6.09872C5.89672 14.928 5.70272 14.846 5.56172 14.701C5.42072 14.557 5.34372 14.362 5.34872 14.159L5.44272 10.38C5.46172 9.628 5.76472 8.921 6.29672 8.388H6.29772L13.7707 0.915C14.9927 -0.305 16.9797 -0.305 18.2017 0.915ZM13.1551 3.651L7.35772 9.449C7.09872 9.708 6.95172 10.052 6.94272 10.417L6.86772 13.428H9.84472C10.2247 13.428 10.5807 13.281 10.8497 13.012L16.6821 7.178L13.1551 3.651ZM14.8307 1.976L14.2151 2.59L17.7421 6.118L18.3587 5.503C18.6667 5.195 18.8367 4.785 18.8367 4.349C18.8367 3.912 18.6667 3.501 18.3587 3.193L17.1417 1.976C16.5047 1.341 15.4687 1.341 14.8307 1.976Z" fill="#4E4E4E"/>
</svg>
