<svg width="26" height="27" viewBox="0 0 26 27" fill="none" xmlns="http://www.w3.org/2000/svg">
<path d="M18.1928 6.70252C19.6045 6.70252 20.7489 5.42597 20.7489 3.85126C20.7489 2.27655 19.6045 1 18.1928 1C16.7812 1 15.6368 2.27655 15.6368 3.85126C15.6368 5.42597 16.7812 6.70252 18.1928 6.70252Z" stroke="#4E4E4E" stroke-width="1.2" stroke-miterlimit="10" stroke-linecap="round" stroke-linejoin="round"/>
<path d="M20.7354 3.85132H25" stroke="#4E4E4E" stroke-width="1.2" stroke-miterlimit="10" stroke-linecap="round" stroke-linejoin="round"/>
<path d="M1 3.85132H15.6368" stroke="#4E4E4E" stroke-width="1.2" stroke-miterlimit="10" stroke-linecap="round" stroke-linejoin="round"/>
<path d="M8.13005 16.2467C9.54172 16.2467 10.6861 14.9702 10.6861 13.3955C10.6861 11.8207 9.54172 10.5442 8.13005 10.5442C6.71837 10.5442 5.57397 11.8207 5.57397 13.3955C5.57397 14.9702 6.71837 16.2467 8.13005 16.2467Z" stroke="#4E4E4E" stroke-width="1.2" stroke-miterlimit="10" stroke-linecap="round" stroke-linejoin="round"/>
<path d="M10.6861 13.3955H25" stroke="#4E4E4E" stroke-width="1.2" stroke-miterlimit="10" stroke-linecap="round" stroke-linejoin="round"/>
<path d="M1 13.3955H5.58744" stroke="#4E4E4E" stroke-width="1.2" stroke-miterlimit="10" stroke-linecap="round" stroke-linejoin="round"/>
<path d="M18.1928 25.7909C19.6045 25.7909 20.7489 24.5143 20.7489 22.9396C20.7489 21.3649 19.6045 20.0884 18.1928 20.0884C16.7812 20.0884 15.6368 21.3649 15.6368 22.9396C15.6368 24.5143 16.7812 25.7909 18.1928 25.7909Z" stroke="#4E4E4E" stroke-width="1.2" stroke-miterlimit="10" stroke-linecap="round" stroke-linejoin="round"/>
<path d="M20.7354 22.9397H25" stroke="#4E4E4E" stroke-width="1.2" stroke-miterlimit="10" stroke-linecap="round" stroke-linejoin="round"/>
<path d="M1 22.9397H15.6368" stroke="#4E4E4E" stroke-width="1.2" stroke-miterlimit="10" stroke-linecap="round" stroke-linejoin="round"/>
</svg>
