<svg width="32" height="32" viewBox="0 0 32 32" fill="none" xmlns="http://www.w3.org/2000/svg">
<path d="M14.8825 26.86C13.895 26.0675 4.725 17.15 4.6225 17.0525C4.2175 16.6475 3.9625 16.2275 3.8925 15.8425C3.82 15.4425 3.9425 15.0925 4.2675 14.7675C4.57 14.465 4.94 14.305 5.3375 14.305C5.8225 14.305 6.32 14.535 6.735 14.9525L10.8925 18.9475C10.965 19.0175 11.06 19.0525 11.1525 19.0525C11.2261 19.0526 11.2982 19.031 11.3595 18.9904C11.4209 18.9497 11.4689 18.8918 11.4975 18.824C11.5261 18.7561 11.534 18.6813 11.5202 18.609C11.5064 18.5367 11.4715 18.47 11.42 18.4175L4.7825 11.5625C4.1175 10.8975 3.805 9.87997 4.595 9.08997C4.8975 8.78747 5.2675 8.62747 5.665 8.62747C6.15 8.62747 6.6475 8.85747 7.0625 9.27497L13.8525 15.895C13.925 15.965 14.02 16.0025 14.115 16.0025C14.21 16.0025 14.3075 15.965 14.38 15.8925C14.525 15.7475 14.5275 15.5125 14.3825 15.365L6.2275 7.00497C5.85 6.62747 5.6225 6.17497 5.5825 5.73497C5.545 5.28747 5.7025 4.87247 6.04 4.53497C6.3425 4.23247 6.7125 4.07247 7.11 4.07247C7.595 4.07247 8.0925 4.30247 8.5075 4.71747L16.825 12.8275C16.8975 12.8975 16.9925 12.935 17.0875 12.935C17.1825 12.935 17.28 12.8975 17.3525 12.825C17.4975 12.68 17.5 12.445 17.355 12.2975L11.315 6.08997C10.935 5.70997 10.7075 5.25997 10.67 4.81997C10.6325 4.37247 10.79 3.95747 11.1275 3.61997C11.43 3.31747 11.8 3.15747 12.1975 3.15747C12.6825 3.15747 13.18 3.38747 13.595 3.80497C15.81 5.97997 21.5925 11.6675 21.7875 11.8775C22.53 12.39 22.68 11.615 22.7175 11.1125C22.76 10.5275 22.09 8.48497 22.48 6.64747C23.135 4.20497 25.0225 4.60497 25.065 4.62497C26.1 5.10997 25.9025 5.83497 25.535 7.29247L25.4975 7.57997C25.1125 9.48497 27.7575 15.13 27.9525 15.5525C28.99 17.8225 30.185 22.425 26.2275 26.3825C21.89 30.72 16.52 28.4975 14.8825 26.86Z" fill="url(#paint0_radial_163_274)"/>
<path d="M20.4475 29.295C17.7875 29.295 15.525 28.0225 14.6325 27.14C13.83 26.485 8.765 21.595 4.64 17.5925C4.4725 17.43 4.375 17.3375 4.365 17.325C3.8975 16.8575 3.6075 16.37 3.525 15.91C3.43 15.3875 3.5925 14.915 4.0025 14.5025C4.3775 14.1275 4.8375 13.93 5.3375 13.93C5.925 13.93 6.515 14.2 7 14.6875L11.1525 18.6775L4.5125 11.8225C3.7475 11.0575 3.3625 9.78997 4.33 8.82497C4.705 8.44997 5.165 8.25247 5.665 8.25247C6.2525 8.25247 6.8425 8.52247 7.3275 9.00997L14.1125 15.625L5.96 7.26747C5.525 6.83247 5.2575 6.29997 5.21 5.76997C5.1625 5.20497 5.3575 4.68747 5.775 4.26997C6.15 3.89497 6.61 3.69747 7.11 3.69747C7.695 3.69747 8.285 3.96497 8.7725 4.45247L17.0875 12.56L11.0475 6.35247C10.61 5.91497 10.3425 5.38247 10.2975 4.85247C10.25 4.28997 10.445 3.77247 10.8625 3.35497C11.2375 2.97997 11.6975 2.78247 12.1975 2.78247C12.785 2.78247 13.375 3.05247 13.86 3.53997L15.6625 5.30747C18.875 8.45747 21.56 11.095 21.8475 11.39C21.9875 11.5025 22.17 11.545 22.2475 11.5075C22.2975 11.4825 22.3525 11.3675 22.3425 11.125C22.3275 10.7 22.2675 10.1725 22.205 9.61497C22.08 8.49497 21.95 7.33497 22.1125 6.56997C22.4675 5.24247 23.165 4.67997 23.685 4.43747C24.4 4.10747 25.0925 4.22247 25.225 4.28497C26.525 4.89497 26.2675 5.91497 25.9125 7.32997L25.905 7.36497L25.865 7.65747C25.605 8.93747 26.94 12.475 28.275 15.3575L28.295 15.3975C29.1875 17.3475 30.795 22.35 26.495 26.65C24.5175 28.6225 22.3775 29.295 20.4475 29.295ZM5.3375 14.68C5.0425 14.68 4.7625 14.8025 4.5325 15.0325C4.295 15.27 4.2125 15.5 4.2625 15.775C4.3175 16.0775 4.54 16.4375 4.8875 16.7875C4.89 16.79 4.99 16.8875 5.1625 17.0525C11.0175 22.735 14.5525 26.1125 15.1175 26.5675L15.1475 26.595C16.5275 27.975 21.655 30.425 25.9625 26.1175C29.93 22.15 28.4375 17.5175 27.61 15.7075L27.5925 15.67C26.7325 13.815 24.7775 9.31497 25.125 7.51997L25.1825 7.14497C25.5675 5.61497 25.59 5.29497 24.9375 4.97997C24.745 4.94497 23.365 4.77747 22.8375 6.74497C22.705 7.37247 22.8325 8.51997 22.945 9.53247C23.01 10.105 23.07 10.6475 23.085 11.1C23.11 11.8125 22.7725 12.085 22.5675 12.185C22.15 12.3875 21.6525 12.215 21.3425 11.955L21.31 11.925C21.1575 11.76 17.53 8.20247 15.13 5.84747L13.325 4.07497C12.71 3.45747 11.9175 3.35497 11.385 3.88747C11.125 4.14747 11.0075 4.45247 11.035 4.78997C11.065 5.14247 11.255 5.50997 11.5725 5.82747L17.625 12.035C17.7625 12.1764 17.8391 12.3662 17.8381 12.5635C17.8372 12.7608 17.7589 12.9498 17.62 13.09C17.3425 13.3675 16.8525 13.3725 16.5675 13.0975L8.245 4.98497C7.63 4.36997 6.835 4.26747 6.305 4.79997C6.045 5.05997 5.9275 5.36497 5.955 5.70247C5.9875 6.05497 6.1775 6.42497 6.4925 6.73747L14.65 15.1025C14.9375 15.3925 14.935 15.8675 14.645 16.1575C14.3675 16.435 13.8775 16.44 13.5925 16.165L6.8 9.54247C6.185 8.92247 5.39 8.82247 4.86 9.35497C4.2125 10.0025 4.5575 10.805 5.0475 11.2975L11.69 18.1575C11.8271 18.2983 11.9033 18.4875 11.9019 18.684C11.9005 18.8806 11.8216 19.0686 11.6825 19.2075C11.4025 19.4875 10.9175 19.49 10.6325 19.2175L6.475 15.2225C6.125 14.87 5.7225 14.68 5.3375 14.68Z" fill="#EDBD82"/>
<path d="M21.19 11.635C19.8175 14.4375 19.995 18.36 22.055 21.5075C22.2875 21.9325 22.685 21.725 22.4825 21.2875C19.995 15.965 22.6025 12.13 22.6025 12.13L21.19 11.635Z" fill="#EDBD82"/>
<path d="M15.7925 1.12499C16.5475 0.927491 17.3525 0.944991 18.135 1.12749C18.9125 1.31499 19.69 1.70999 20.2675 2.35499C20.8325 2.99499 21.18 3.77249 21.2975 4.58749C21.4075 5.39499 21.305 6.22749 20.9225 6.91749C20.8775 6.14249 20.7425 5.42999 20.515 4.77249C20.3975 4.44499 20.26 4.13249 20.0925 3.83749C19.9275 3.54499 19.7325 3.25499 19.525 3.01749C19.1025 2.52999 18.53 2.14999 17.8875 1.85499C17.2425 1.54999 16.54 1.32499 15.7925 1.12499Z" fill="#B0BEC5"/>
<path d="M16 3.49491C16.4175 3.22991 16.94 3.17491 17.4325 3.26241C17.93 3.34991 18.405 3.59741 18.78 3.93991C19.1525 4.28741 19.4175 4.72491 19.5825 5.17991C19.6625 5.40741 19.7025 5.64741 19.74 5.87991C19.7525 6.11991 19.7525 6.35991 19.715 6.59991C19.5425 6.41741 19.4075 6.23491 19.28 6.05741C19.1325 5.88991 19.0175 5.71241 18.885 5.54991C18.625 5.22741 18.3725 4.93491 18.1 4.67491C17.82 4.42241 17.525 4.19991 17.1825 4.00741C16.8425 3.80991 16.46 3.64491 16 3.49491Z" fill="#90A4AE"/>
<path d="M1.7075 19.335C2.06 20.025 2.4275 20.665 2.855 21.23C3.28 21.795 3.7675 22.275 4.335 22.5875C4.61 22.74 4.9375 22.8725 5.2575 22.9725C5.58 23.075 5.915 23.145 6.26 23.1925C6.95 23.2775 7.675 23.2625 8.4425 23.145C7.8475 23.6625 7.0525 23.9375 6.2425 23.9975C5.4225 24.0525 4.59 23.875 3.845 23.455C3.095 23.0275 2.545 22.3475 2.2 21.625C1.855 20.8975 1.67 20.115 1.7075 19.335Z" fill="#B0BEC5"/>
<path d="M4.07 19.0425C4.3125 19.4625 4.5525 19.8 4.815 20.095C5.075 20.39 5.355 20.6325 5.66 20.8525C5.97 21.065 6.31 21.2525 6.68 21.44C6.865 21.535 7.0625 21.61 7.2575 21.72C7.46 21.8075 7.665 21.9 7.88 22.0325C7.6525 22.1175 7.42 22.1675 7.1825 22.205C6.9475 22.215 6.705 22.2275 6.465 22.195C5.985 22.13 5.505 21.9625 5.085 21.67C4.6725 21.3725 4.33 20.96 4.1425 20.4925C3.9525 20.0275 3.8975 19.5075 4.07 19.0425Z" fill="#90A4AE"/>
<defs>
<radialGradient id="paint0_radial_163_274" cx="0" cy="0" r="1" gradientUnits="userSpaceOnUse" gradientTransform="translate(11.0116 9.50012) rotate(-45) scale(22.752)">
<stop offset="0.353" stop-color="#F9DDBD"/>
<stop offset="0.872" stop-color="#FFD29C"/>
</radialGradient>
</defs>
</svg>
