<svg width="207" height="38" viewBox="0 0 207 38" fill="none" xmlns="http://www.w3.org/2000/svg">
<path d="M168.154 28.9373V21.5054L177.167 26.7409C179.107 27.868 181.375 28.4683 183.693 28.4683C186.011 28.4683 188.278 27.868 190.219 26.7409L199.231 21.5054V28.9373C199.231 29.2576 199.114 29.5692 198.898 29.8254L198.896 29.8273L198.894 29.8313L198.887 29.8392L198.867 29.8589L198.841 29.8905L198.812 29.924L198.621 30.1233C198.397 30.3493 198.162 30.5666 197.917 30.7746C197.302 31.3015 196.385 31.9863 195.142 32.6651C192.654 34.0268 188.885 35.351 183.693 35.351C178.501 35.351 174.734 34.0288 172.241 32.6651C171.243 32.1247 170.313 31.4916 169.466 30.7765C169.13 30.4883 168.813 30.1825 168.518 29.8609L168.498 29.8411L168.492 29.8313V29.8273C168.274 29.5707 168.156 29.2586 168.154 28.9373Z" fill="white"/>
<path d="M206.246 13.8961L188.399 24.2625C186.999 25.0755 185.364 25.5084 183.693 25.5084C182.021 25.5084 180.386 25.0755 178.987 24.2625L163.715 15.3919V25.9774C163.715 26.37 163.539 26.7464 163.227 27.024C162.915 27.3015 162.491 27.4575 162.05 27.4575C161.608 27.4575 161.185 27.3015 160.872 27.024C160.56 26.7464 160.385 26.37 160.385 25.9774V13.6435C160.385 13.4698 160.418 13.304 160.48 13.1501C160.355 12.8356 160.353 12.4927 160.475 12.1771C160.597 11.8615 160.835 11.5917 161.151 11.4115L179.051 1.2089C180.436 0.419553 182.047 0 183.693 0C185.338 0 186.949 0.419553 188.334 1.2089L206.235 11.4115C206.468 11.545 206.661 11.7283 206.795 11.9448C206.928 12.1613 206.999 12.4041 207 12.6511C207.001 12.8981 206.933 13.1414 206.801 13.3589C206.669 13.5763 206.478 13.761 206.246 13.8961Z" fill="white"/>
<path d="M12.9925 13.7347C13.6095 13.7347 14.1836 13.8546 14.7149 14.0946C15.2633 14.3173 15.7346 14.6344 16.1288 15.0457C16.5401 15.4399 16.8572 15.9026 17.0799 16.4339C17.3199 16.9652 17.4398 17.5393 17.4398 18.1563V21.1125C17.4398 21.5753 17.3456 22.0123 17.1571 22.4236C16.9857 22.8349 16.7372 23.1948 16.4116 23.5033C16.1031 23.8118 15.7432 24.0603 15.3319 24.2488C14.9206 24.4202 14.4835 24.5059 14.0208 24.5059H11.1159C10.4476 24.5059 9.83059 24.3688 9.26504 24.0945C8.71663 23.8032 8.2539 23.4262 7.87687 22.9634C7.49983 22.5007 7.22563 21.9694 7.05425 21.3696C6.88287 20.7526 6.85716 20.1185 6.97713 19.4673L7.36273 17.3593H6.1545C5.8803 17.3593 5.64037 17.4536 5.43471 17.6421C5.22906 17.8306 5.12623 18.0706 5.12623 18.3619V30.984H1.96428V18.5419C1.96428 17.8735 2.08424 17.2479 2.32417 16.6652C2.58124 16.0826 2.924 15.577 3.35245 15.1485C3.79804 14.703 4.31217 14.3602 4.89486 14.1203C5.47756 13.8632 6.10309 13.7347 6.77147 13.7347H12.9925ZM14.2522 20.7784V18.1305C14.2693 17.9249 14.1922 17.7449 14.0208 17.5907C13.8666 17.4365 13.6866 17.3593 13.481 17.3593H10.6532L10.1134 20.0586C10.0791 20.2471 10.1219 20.4185 10.2419 20.5727C10.3619 20.7098 10.5161 20.7784 10.7046 20.7784H14.2522ZM25.7225 24.146C25.7225 24.3859 25.6025 24.5059 25.3626 24.5059H24.5914C23.9401 24.5059 23.3232 24.3859 22.7405 24.146C22.1749 23.8889 21.6779 23.5547 21.2495 23.1434C20.821 22.7149 20.4783 22.2179 20.2212 21.6524C19.9813 21.0697 19.8613 20.4527 19.8613 19.8015V6.66526H23.049V19.7244C23.049 20.0157 23.1432 20.2642 23.3317 20.4699C23.5374 20.6584 23.7859 20.7526 24.0772 20.7526H25.3626C25.4654 20.7526 25.5511 20.7955 25.6197 20.8812C25.6882 20.9497 25.7225 21.0354 25.7225 21.1383V24.146ZM32.3709 24.5059C31.754 24.5059 31.1713 24.3945 30.6229 24.1717C30.0916 23.9317 29.6203 23.5633 29.209 23.0663C28.7634 23.5633 28.2664 23.9317 27.718 24.1717C27.1867 24.3945 26.6126 24.5059 25.9956 24.5059H25.353C25.2501 24.5059 25.1644 24.4716 25.0959 24.403C25.0273 24.3173 24.9931 24.2317 24.9931 24.146V21.1383C24.9931 21.0354 25.0359 20.9497 25.1216 20.8812C25.1901 20.7955 25.2673 20.7526 25.353 20.7526H26.5869C26.8782 20.7526 27.1182 20.6498 27.3067 20.4442C27.5123 20.2214 27.6152 19.9643 27.6152 19.673V14.8915H30.7771V19.673C30.7771 19.9643 30.8714 20.2214 31.0599 20.4442C31.2655 20.6498 31.514 20.7526 31.8054 20.7526H32.6023C32.8936 20.7526 33.1507 20.667 33.3735 20.4956C33.5963 20.3071 33.742 20.0671 33.8105 19.7758L34.7874 14.9429L37.9751 15.5084L37.1524 19.5444C37.0839 19.8358 37.1524 20.11 37.3581 20.367C37.5637 20.6241 37.8122 20.7526 38.1036 20.7526H40.1087V14.2231H43.2964V21.0868C43.2964 21.5496 43.2021 21.9866 43.0136 22.3979C42.8422 22.8092 42.5937 23.1777 42.2681 23.5033C41.9596 23.8118 41.5997 24.0603 41.1884 24.2488C40.7771 24.4202 40.3401 24.5059 39.8774 24.5059H38.1036C37.5552 24.5059 37.0496 24.3945 36.5869 24.1717C36.1242 23.9489 35.7043 23.5718 35.3272 23.0406C34.9159 23.589 34.4532 23.9746 33.9391 24.1974C33.4421 24.403 32.9194 24.5059 32.3709 24.5059ZM41.4939 31.164L40.517 28.1562L44.4245 26.8966C45.0243 26.6909 45.5127 26.3311 45.8898 25.8169C46.2668 25.3028 46.4553 24.7201 46.4553 24.0688V14.9172H49.643V23.7347C49.643 24.4373 49.5316 25.1057 49.3088 25.7398C49.1031 26.391 48.8032 26.9823 48.409 27.5136C48.032 28.062 47.5693 28.5333 47.0209 28.9274C46.4896 29.3388 45.8983 29.6558 45.2471 29.8786L41.4939 31.164ZM58.2819 17.8221C58.1791 17.9077 58.0677 18.0106 57.9477 18.1305C57.8449 18.2505 57.7935 18.4305 57.7935 18.6704V19.7501C57.7935 19.87 57.8192 20.0157 57.8706 20.1871C57.9391 20.3413 58.0334 20.4956 58.1534 20.6498C58.2733 20.8041 58.4276 20.9326 58.6161 21.0354C58.8046 21.1211 59.0188 21.164 59.2588 21.164H60.5955C60.8869 21.164 61.1268 21.1125 61.3153 21.0097C61.521 20.8898 61.6752 20.7612 61.778 20.6241C61.898 20.4699 61.9751 20.3242 62.0094 20.1871C62.0608 20.0329 62.0865 19.9215 62.0865 19.8529V18.7732C62.0865 18.6361 62.0437 18.4819 61.958 18.3105C61.8894 18.122 61.7523 17.9592 61.5467 17.8221C61.461 17.7706 61.3153 17.685 61.1097 17.565C60.904 17.445 60.6984 17.3165 60.4927 17.1794C60.2356 17.0251 59.97 16.8623 59.6958 16.691L58.2819 17.8221ZM57.1251 11.1383C57.1251 11.1383 57.2108 11.1982 57.3822 11.3182C57.5707 11.421 57.802 11.5667 58.0763 11.7552C58.3676 11.9437 58.6932 12.158 59.0531 12.3979C59.4301 12.6378 59.8072 12.8863 60.1842 13.1434C61.0925 13.7432 62.1122 14.4202 63.2433 15.1742C63.6375 15.4313 63.9631 15.7141 64.2202 16.0226C64.4944 16.3311 64.7086 16.6481 64.8629 16.9737C65.0171 17.2994 65.1199 17.625 65.1714 17.9506C65.2399 18.2762 65.2742 18.5847 65.2742 18.876V19.7244C65.2742 20.2899 65.1714 20.8726 64.9657 21.4724C64.7772 22.0551 64.4687 22.595 64.0403 23.092C63.6289 23.589 63.0977 24.0003 62.4464 24.3259C61.8123 24.6344 61.0497 24.7886 60.1585 24.7886H59.6187C58.7789 24.7886 58.042 24.6344 57.4079 24.3259C56.7909 24.0003 56.2682 23.589 55.8398 23.092C55.4284 22.595 55.12 22.0466 54.9143 21.4467C54.7086 20.8469 54.6058 20.2728 54.6058 19.7244V18.9532C54.623 18.0791 54.8372 17.3079 55.2485 16.6395C55.6769 15.9712 56.1568 15.4913 56.6881 15.2C56.7738 15.1485 56.8423 15.1057 56.8937 15.0714C56.9623 15.0371 57.0137 15.0114 57.048 14.9943C57.0994 14.9772 57.1337 14.96 57.1508 14.9429L55.4027 13.7861L57.1251 11.1383ZM73.5213 24.146C73.5213 24.3859 73.4013 24.5059 73.1614 24.5059H72.3902C71.7389 24.5059 71.122 24.3859 70.5393 24.146C69.9737 23.8889 69.4767 23.5547 69.0483 23.1434C68.6198 22.7149 68.2771 22.2179 68.02 21.6524C67.7801 21.0697 67.6601 20.4527 67.6601 19.8015V6.66526H70.8478V19.7244C70.8478 20.0157 70.942 20.2642 71.1306 20.4699C71.3362 20.6584 71.5847 20.7526 71.8761 20.7526H73.1614C73.2642 20.7526 73.3499 20.7955 73.4185 20.8812C73.487 20.9497 73.5213 21.0354 73.5213 21.1383V24.146ZM74.36 11.9609L80.6325 4.583L82.1235 6.074L76.0052 13.2462L74.36 11.9609ZM95.9795 19.6987C95.9795 19.99 96.0738 20.2385 96.2623 20.4442C96.4679 20.6498 96.7164 20.7526 97.0078 20.7526H98.8073C98.9101 20.7526 98.9958 20.7955 99.0643 20.8812C99.1329 20.9497 99.1672 21.0269 99.1672 21.1125L99.1929 24.146C99.1929 24.2488 99.15 24.3345 99.0643 24.403C98.9958 24.4716 98.9101 24.5059 98.8073 24.5059H97.5476C96.9649 24.5059 96.4079 24.403 95.8767 24.1974C95.3625 23.9917 94.8912 23.7175 94.4628 23.3748C94.0515 23.7175 93.5802 23.9917 93.0489 24.1974C92.5348 24.403 91.9949 24.5059 91.4294 24.5059H73.1518C72.9118 24.5059 72.7919 24.3859 72.7919 24.146V21.1125C72.7919 21.0269 72.8261 20.9497 72.8947 20.8812C72.9461 20.7955 73.0318 20.7526 73.1518 20.7526H92.0206C92.2092 20.7526 92.3805 20.6755 92.5348 20.5213C92.7062 20.367 92.7918 20.17 92.7918 19.93V18.1048C92.7918 17.8478 92.6976 17.6335 92.5091 17.4622C92.3377 17.2736 92.132 17.1794 91.8921 17.1794H78.9358L76.6479 14.9943L84.4628 5.84264L86.7507 7.9506L81.8921 13.709H91.5579C92.1749 13.709 92.749 13.8289 93.2803 14.0688C93.8116 14.2916 94.2743 14.6087 94.6684 15.02C95.0798 15.4142 95.3968 15.8855 95.6196 16.4339C95.8595 16.9652 95.9795 17.5393 95.9795 18.1563V19.6987ZM105.826 24.5059C105.209 24.5059 104.627 24.3945 104.078 24.1717C103.547 23.9317 103.076 23.5633 102.665 23.0663C102.219 23.5633 101.722 23.9317 101.174 24.1717C100.642 24.3945 100.068 24.5059 99.4511 24.5059H98.8085C98.7056 24.5059 98.6199 24.4716 98.5514 24.403C98.4828 24.3173 98.4486 24.2317 98.4486 24.146V21.1383C98.4486 21.0354 98.4914 20.9497 98.5771 20.8812C98.6628 20.7955 98.7399 20.7526 98.8085 20.7526H100.042C100.334 20.7526 100.574 20.6498 100.762 20.4442C100.968 20.2214 101.071 19.9643 101.071 19.673V14.8915H104.233V19.673C104.233 19.9643 104.327 20.2214 104.515 20.4442C104.721 20.6498 104.97 20.7526 105.261 20.7526H106.032C106.323 20.7526 106.581 20.667 106.803 20.4956C107.026 20.3071 107.163 20.0671 107.215 19.7758L108.191 14.9429L111.431 15.5084L110.608 19.5444C110.539 19.8358 110.608 20.11 110.814 20.367C111.019 20.6241 111.268 20.7526 111.559 20.7526H113.564V14.2231H116.752V21.0868C116.752 21.5496 116.658 21.9866 116.469 22.3979C116.298 22.8092 116.049 23.1777 115.724 23.5033C115.415 23.8118 115.055 24.0603 114.644 24.2488C114.233 24.4202 113.796 24.5059 113.333 24.5059H111.559C111.011 24.5059 110.505 24.3945 110.042 24.1717C109.58 23.9489 109.16 23.5718 108.783 23.0406C108.371 23.589 107.909 23.9746 107.395 24.1974C106.898 24.403 106.375 24.5059 105.826 24.5059ZM112.099 12.8092H108.886V9.59585H112.099V12.8092ZM107.549 12.8092H104.335V9.59585H107.549V12.8092ZM109.785 8.64469H106.572V5.43132H109.785V8.64469ZM114.949 31.164L113.973 28.1819L117.88 26.8966C118.48 26.6909 118.968 26.3311 119.345 25.8169C119.722 25.3028 119.911 24.7201 119.911 24.0688V14.9429H123.098V23.7604C123.098 24.463 122.987 25.1314 122.764 25.7655C122.559 26.3996 122.259 26.9823 121.865 27.5136C121.488 28.062 121.025 28.5333 120.476 28.9274C119.945 29.3388 119.354 29.6558 118.703 29.8786L114.949 31.164ZM119.808 9.57014H123.021V12.7835H119.808V9.57014ZM129.762 24.5059C129.094 24.5059 128.477 24.3688 127.911 24.0945C127.363 23.8032 126.891 23.4262 126.497 22.9634C126.12 22.5007 125.846 21.9694 125.675 21.3696C125.52 20.7526 125.503 20.1271 125.623 19.493L126.06 17.128C126.146 16.631 126.317 16.1768 126.574 15.7655C126.831 15.3542 127.14 14.9943 127.5 14.6858C127.877 14.3773 128.297 14.1374 128.759 13.966C129.222 13.7946 129.702 13.709 130.199 13.709H131.639C132.256 13.709 132.83 13.8289 133.361 14.0688C133.892 14.2916 134.355 14.6087 134.749 15.02C135.16 15.4142 135.478 15.8855 135.7 16.4339C135.94 16.9652 136.06 17.5393 136.06 18.1563V20.7526H137.783C138.022 20.7526 138.142 20.8726 138.142 21.1125V24.146C138.142 24.3859 138.022 24.5059 137.783 24.5059H136.034C136.034 24.5744 136.026 24.6515 136.009 24.7372C135.957 25.337 135.812 25.9026 135.572 26.4339C135.349 26.9652 135.04 27.4536 134.646 27.8992C134.269 28.3619 133.824 28.7646 133.31 29.1074C132.813 29.4502 132.264 29.7244 131.664 29.93L127.911 31.2154L126.96 28.2077L130.765 26.9223C131.364 26.7167 131.861 26.391 132.256 25.9454C132.65 25.4999 132.847 24.9514 132.847 24.3002V24.146C132.624 24.2488 132.358 24.3345 132.05 24.403C131.759 24.4716 131.467 24.5059 131.176 24.5059H129.762ZM129.325 20.7526H132.873V18.1305C132.873 17.9249 132.795 17.7449 132.641 17.5907C132.504 17.4365 132.324 17.3508 132.101 17.3336H129.891C129.514 17.3336 129.265 17.5479 129.145 17.9763L128.734 20.0586C128.699 20.2299 128.742 20.3928 128.862 20.547C128.982 20.6841 129.136 20.7526 129.325 20.7526ZM143.555 20.7526H147.102V18.1305C147.102 17.9249 147.025 17.7449 146.871 17.5907C146.734 17.4365 146.554 17.3593 146.331 17.3593H144.12C143.932 17.3593 143.769 17.4193 143.632 17.5393C143.495 17.6592 143.409 17.8135 143.375 18.002L142.963 20.0586C142.929 20.2471 142.972 20.4099 143.092 20.547C143.212 20.6841 143.366 20.7526 143.555 20.7526ZM139.776 19.8015L140.29 17.1537C140.375 16.6567 140.547 16.2025 140.804 15.7912C141.061 15.3628 141.369 15.0029 141.729 14.7115C142.106 14.403 142.526 14.1631 142.989 13.9917C143.452 13.8203 143.932 13.7347 144.429 13.7347H145.868C146.485 13.7347 147.059 13.8546 147.591 14.0946C148.122 14.3173 148.585 14.6344 148.979 15.0457C149.39 15.4399 149.707 15.9026 149.93 16.4339C150.17 16.9652 150.29 17.5393 150.29 18.1563V21.1125C150.29 21.5753 150.196 22.0123 150.007 22.4236C149.836 22.8349 149.596 23.1948 149.287 23.5033C148.979 23.8118 148.619 24.0603 148.208 24.2488C147.796 24.4202 147.359 24.5059 146.896 24.5059H143.966C143.469 24.5059 142.98 24.4116 142.501 24.2231C142.038 24.0174 141.609 23.6404 141.215 23.092C140.821 23.6233 140.384 23.9917 139.904 24.1974C139.424 24.403 138.91 24.5059 138.362 24.5059H137.771C137.685 24.5059 137.608 24.4716 137.539 24.403C137.453 24.3345 137.411 24.2488 137.411 24.146V21.1125C137.411 20.8726 137.531 20.7526 137.771 20.7526H138.593C138.884 20.7526 139.133 20.667 139.339 20.4956C139.561 20.3242 139.707 20.0928 139.776 19.8015ZM156.132 24.5059H152.945V8.6704H156.132V24.5059ZM149.552 8.15626V6.74238C149.552 6.31393 149.629 5.93689 149.783 5.61127C149.92 5.28565 150.108 5.02001 150.348 4.81436C150.588 4.59157 150.863 4.42875 151.171 4.32593C151.48 4.2231 151.797 4.17169 152.122 4.17169H157.366V6.89662H152.199C151.908 6.89662 151.762 7.03372 151.762 7.30793V8.15626H149.552Z" fill="#F9F9F9"/>
</svg>
