<svg width="22" height="21" viewBox="0 0 22 21" fill="none" xmlns="http://www.w3.org/2000/svg">
<path fill-rule="evenodd" clip-rule="evenodd" d="M10.2853 2.28149C12.4271 2.28149 14.1697 3.96842 14.1697 6.0419V6.83195C14.1697 7.1829 13.8754 7.46773 13.5129 7.46773C13.1504 7.46773 12.8562 7.1829 12.8562 6.83195V6.0419C12.8562 4.66862 11.7029 3.55305 10.2853 3.55305H6.01647C4.60054 3.55305 3.44818 4.66862 3.44818 6.0419V15.476C3.44818 16.8484 4.60054 17.964 6.01647 17.964H10.2949C11.7064 17.964 12.8562 16.8518 12.8562 15.4853V14.6859C12.8562 14.335 13.1504 14.0501 13.5129 14.0501C13.8754 14.0501 14.1697 14.335 14.1697 14.6859V15.4853C14.1697 17.5537 12.4306 19.2355 10.2949 19.2355H6.01647C3.87637 19.2355 2.1347 17.5494 2.1347 15.476V6.0419C2.1347 3.96842 3.87637 2.28149 6.01647 2.28149H10.2853ZM17.3606 7.83733L19.9245 10.3084C19.9474 10.3303 19.9679 10.3532 19.9866 10.3774L19.9245 10.3084C19.9555 10.338 19.9831 10.3703 20.0071 10.4048C20.0176 10.4205 20.0278 10.4366 20.0372 10.4533C20.0448 10.4662 20.0519 10.4798 20.0584 10.4936C20.0639 10.5057 20.0692 10.5179 20.0741 10.5303C20.0807 10.5464 20.0865 10.563 20.0916 10.5797C20.0954 10.593 20.0989 10.6061 20.102 10.6195C20.1059 10.6357 20.109 10.652 20.1114 10.6684C20.1128 10.6791 20.1141 10.6902 20.1152 10.7015C20.1172 10.7208 20.118 10.7396 20.118 10.7585L20.1136 10.8111L20.1118 10.8447C20.1116 10.8462 20.1114 10.8476 20.1112 10.8491L20.118 10.7585C20.118 10.8056 20.1127 10.8522 20.1022 10.8975C20.0989 10.9109 20.0954 10.9241 20.0915 10.9371C20.0865 10.9541 20.0807 10.9706 20.0743 10.9869C20.0692 10.9991 20.0639 11.0113 20.0582 11.0233C20.0519 11.0372 20.0448 11.0508 20.0373 11.0641C20.0278 11.0804 20.0176 11.0965 20.0067 11.1122C20.0006 11.1215 19.9939 11.1307 19.9869 11.1397C19.966 11.1662 19.9433 11.1912 19.9187 11.2143L17.3606 13.6805C17.2328 13.8043 17.0646 13.8662 16.8974 13.8662C16.7293 13.8662 16.5603 13.8043 16.4324 13.6788C16.1767 13.4296 16.1776 13.0278 16.4342 12.7803L17.8702 11.3943H8.91732C8.5548 11.3943 8.26058 11.1095 8.26058 10.7585C8.26058 10.4076 8.5548 10.1227 8.91732 10.1227H17.8719L16.4342 8.73759C16.1776 8.49006 16.1759 8.08825 16.4324 7.83902C16.6881 7.5898 17.1032 7.5898 17.3606 7.83733Z" fill="#F9F9F9"/>
</svg>
