<svg width="24" height="22" viewBox="0 0 24 22" fill="none" xmlns="http://www.w3.org/2000/svg">
<path fill-rule="evenodd" clip-rule="evenodd" d="M17.4798 0C21.197 0 24 3.03293 24 7.05488V14.7215C24 16.7799 23.2722 18.6396 21.9494 19.9591C20.7628 21.1412 19.2234 21.7674 17.4977 21.7674H6.49898C4.77656 21.7674 3.23833 21.1423 2.0506 19.9591C0.727814 18.6396 0 16.7799 0 14.7215V7.05488C0 3.03293 2.80298 0 6.52019 0H17.4798ZM17.4798 1.67442H6.52019C3.71274 1.67442 1.67442 3.93712 1.67442 7.05488V14.7215C1.67442 16.3323 2.22809 17.7712 3.23274 18.7725C4.09898 19.6376 5.22977 20.093 6.50233 20.093H17.4798C17.482 20.0908 17.491 20.093 17.4977 20.093C18.7714 20.093 19.901 19.6376 20.7673 18.7725C21.773 17.7712 22.3256 16.3323 22.3256 14.7215V7.05488C22.3256 3.93712 20.2873 1.67442 17.4798 1.67442ZM19.2391 6.84145C19.5304 7.19978 19.4757 7.72666 19.1174 8.01913L14.1567 12.0511C13.5293 12.549 12.7792 12.7979 12.0301 12.7979C11.2833 12.7979 10.5388 12.5512 9.91591 12.0578L4.9094 8.02136C4.54884 7.73113 4.49302 7.20313 4.78214 6.84368C5.07349 6.48536 5.60037 6.42843 5.95981 6.71754L10.9619 10.7495C11.5903 11.2474 12.4755 11.2474 13.1085 10.7451L18.0603 6.71978C18.4197 6.4262 18.9466 6.48201 19.2391 6.84145Z" fill="#4E4E4E"/>
</svg>
