<svg width="24" height="30" viewBox="0 0 24 30" fill="none" xmlns="http://www.w3.org/2000/svg">
<path fill-rule="evenodd" clip-rule="evenodd" d="M9.50323 26.0113C10.1753 26.7912 11.0382 27.2196 11.9335 27.2196H11.9348C12.8339 27.2196 13.7007 26.7912 14.3741 26.0099C14.7348 25.595 15.3498 25.5612 15.7481 25.9356C16.1478 26.31 16.1802 26.952 15.8208 27.3669C14.7724 28.5793 13.3931 29.247 11.9348 29.247H11.9322C10.4777 29.2456 9.101 28.5779 8.05651 27.3656C7.6971 26.9506 7.72954 26.3086 8.12917 25.9356C8.5288 25.5599 9.14382 25.5937 9.50323 26.0113ZM11.9981 0.188232C17.7655 0.188232 21.6398 4.86736 21.6398 9.23698C21.6398 11.4846 22.1887 12.4375 22.7713 13.4485C23.3474 14.4459 24 15.5785 24 17.7194C23.5472 23.1892 18.0652 23.6352 11.9981 23.6352C5.93093 23.6352 0.447674 23.1892 1.71742e-05 17.8059C-0.00385802 15.5785 0.648787 14.4459 1.22488 13.4485L1.42826 13.0919C1.929 12.1954 2.3563 11.2202 2.3563 9.23698C2.3563 4.86736 6.23066 0.188232 11.9981 0.188232ZM11.9981 2.21559C7.46329 2.21559 4.30256 5.91618 4.30256 9.23698C4.30256 12.0469 3.5539 13.3458 2.89217 14.4919C2.36149 15.4123 1.9424 16.1394 1.9424 17.7194C2.15908 20.2685 3.77448 21.6079 11.9981 21.6079C20.1762 21.6079 21.8422 20.209 22.0576 17.6316C22.0537 16.1394 21.6346 15.4123 21.104 14.4919C20.4422 13.3458 19.6936 12.0469 19.6936 9.23698C19.6936 5.91618 16.5329 2.21559 11.9981 2.21559Z" fill="#4E4E4E"/>
</svg>
