<svg width="50" height="50" viewBox="0 0 50 50" fill="none" xmlns="http://www.w3.org/2000/svg">
<path d="M50 24.9121C50 32.2392 46.831 38.8628 41.784 43.4349C40.9624 44.197 40.1408 44.8417 39.2019 45.4865C38.7324 45.8382 38.2042 46.1313 37.6761 46.483C37.5 46.6002 37.2653 46.7175 37.0892 46.8347C36.7958 47.0106 36.5023 47.1278 36.2089 47.3036C35.5634 47.6553 34.8592 47.9484 34.1549 48.2415C33.4507 48.5346 32.7465 48.7691 32.0423 48.9449C31.2793 49.1794 30.5164 49.3552 29.6948 49.5311C28.169 49.8242 26.5845 50 24.9413 50C21.3028 50 17.8991 49.238 14.7887 47.8312C14.6714 47.7726 14.4953 47.714 14.3779 47.6553C14.2606 47.5967 14.1432 47.5381 14.0258 47.4795C13.439 47.1864 12.8521 46.8933 12.2653 46.5416C12.0305 46.4244 11.7958 46.3072 11.6197 46.1313C10.0352 45.1348 8.62676 43.9625 7.33568 42.6729L7.04225 42.3798C6.63146 41.9109 6.22066 41.5006 5.80986 41.0317C5.75117 40.9144 5.6338 40.7972 5.57512 40.7386C5.10563 40.1524 4.63615 39.5076 4.22535 38.8628C1.58451 34.8769 0 30.129 0 25.0293C0 11.1958 11.2089 0 25.0587 0C38.9084 0 50 11.0785 50 24.9121Z" fill="#FFDEA2"/>
<path d="M21.7136 18.4056C21.7136 18.4056 21.1267 27.9015 21.7136 30.3048C21.7136 30.3048 17.3708 30.4807 15.9037 27.7843C14.4366 25.0879 16.7253 11.8406 19.6596 8.73389C22.5938 5.6272 33.568 4.51349 33.2159 13.7749C32.8638 23.0364 31.9835 31.7702 31.9835 31.7702C31.9835 31.7702 28.5211 32.0047 26.115 29.8945L21.7136 18.4056Z" fill="#4E4E4E"/>
<path d="M41.7839 43.4349C40.9623 44.1969 40.1407 44.8417 39.2018 45.4865C38.7323 45.8382 38.2041 46.1313 37.676 46.483C37.4999 46.6002 37.2652 46.7175 37.0891 46.8347C36.7957 47.0105 36.5022 47.1278 36.2088 47.3036C35.5633 47.6553 34.859 47.9484 34.1548 48.2415L34.0961 48.0656L33.9788 47.6553L33.8027 46.9519L31.514 37.0457L35.7393 31.5357L36.3849 30.6565C36.3849 30.6565 36.5022 30.7151 36.6196 30.891C37.0891 31.3599 38.2041 32.5908 39.0257 34.2321C39.5539 35.0527 40.6689 39.0973 41.7839 43.4349Z" fill="#FEBE00"/>
<path d="M36.7367 30.8321C36.5606 30.6565 36.5019 30.5979 36.5019 30.5979L35.8564 31.4763C36.1498 31.242 36.4432 31.0078 36.7367 30.8321Z" fill="#E0A000"/>
<path d="M39.202 45.4277C38.7325 45.7794 38.2044 46.0725 37.6762 46.4242C37.5001 46.5415 37.2654 46.6587 37.0893 46.7759C36.7959 46.8932 36.5025 47.0104 36.2091 47.1276C35.5048 47.4207 34.8006 47.7138 34.0964 48.0069L33.979 47.5966C34.6832 47.3035 35.4461 46.9518 36.2091 46.6587C36.6785 46.4828 37.148 46.307 37.6175 46.0725C38.2044 45.8967 38.6738 45.6622 39.202 45.4277Z" fill="#E0A000"/>
<path d="M37.734 46.4243C37.558 46.5415 37.3232 46.6588 37.1472 46.776C36.8537 46.9519 36.5603 47.0691 36.2669 47.2449C35.6213 47.5966 34.9171 47.8897 34.2129 48.1828L34.1542 48.007L34.0368 47.5966L33.8608 46.8932V40.8557L35.9735 36.4595L36.3843 38.6869L37.6753 46.0726L37.734 46.4243Z" fill="#D39700"/>
<path d="M36.5021 30.598V31.0084L36.3848 38.6871L36.2674 46.659V47.1279V47.2452C35.6219 47.5969 34.9176 47.89 34.2134 48.183C33.5092 48.4761 32.8049 48.7106 32.1007 48.8864C31.3378 49.1209 30.5749 49.2968 29.7533 49.4726C28.2275 49.7657 26.643 49.9415 24.9998 49.9415C21.3613 49.9415 17.9575 49.1795 14.8472 47.7727C14.7298 47.7141 14.5538 47.6555 14.4364 47.5969C14.319 47.5383 14.2017 47.4796 14.0843 47.421C13.4974 47.1279 12.9106 46.8349 12.3237 46.4832L12.265 45.3694L12.0303 40.0353V39.5664V39.3319L11.9129 36.7528V36.2839L11.6195 30.1291C11.7956 30.0119 13.3801 28.7223 15.9035 27.6086C17.2533 27.0224 18.7791 26.4363 20.5397 26.1432H20.5984C20.7158 26.1432 20.8331 26.0846 21.0092 26.0846C21.1852 26.0259 21.42 26.0259 21.596 25.9673C22.3589 25.8501 23.1805 25.8501 24.0021 25.8501C24.2369 25.8501 24.4716 25.8501 24.7064 25.9087C25.528 25.9673 26.2909 26.0259 26.9951 26.2018C27.0538 26.2018 27.1125 26.2018 27.1712 26.2604C27.3472 26.2604 27.4646 26.319 27.6406 26.319C27.758 26.3776 27.9341 26.3776 28.1101 26.4363C29.812 26.8466 31.2791 27.4327 32.5702 28.0775C32.805 28.1948 32.981 28.312 33.2158 28.3706C33.2744 28.3706 33.2744 28.4292 33.3331 28.4292C35.2111 29.4843 36.3848 30.4808 36.6782 30.7153C36.5021 30.5394 36.5021 30.598 36.5021 30.598Z" fill="#FEBE00"/>
<path d="M36.5029 30.5977V31.008C36.2681 31.1838 36.0334 31.3011 35.8573 31.4769C28.639 36.5766 21.6554 42.0865 14.8479 47.7724C14.7306 47.7137 14.5545 47.6551 14.4371 47.5965C21.5381 41.6762 28.8738 35.9318 36.4442 30.5391C36.5029 30.5391 36.5029 30.5977 36.5029 30.5977Z" fill="#E0A000"/>
<path d="M11.795 36.1663V36.6353C16.9007 33.001 22.1237 29.484 27.4641 26.1429C27.288 26.0843 27.0533 26.0843 26.8772 26.0256C21.7716 29.2496 16.7246 32.6493 11.795 36.1663Z" fill="#E0A000"/>
<path d="M11.9713 39.9179C19.1309 35.932 26.2318 32.0047 33.4501 28.3705C33.3328 28.3118 33.1567 28.1946 33.0393 28.136C25.9971 31.7116 18.9548 35.5217 11.9713 39.449V39.9179Z" fill="#E0A000"/>
<path d="M36.2678 46.6587V47.1276C35.5636 47.4207 34.8594 47.7138 34.1552 48.0069C33.4509 48.3 32.7467 48.593 32.0425 48.8861C31.2796 49.1206 30.5167 49.2964 29.6951 49.4723C31.1622 48.8275 32.5707 48.2413 34.0378 47.5966C34.8007 47.3035 35.5049 46.9518 36.2678 46.6587Z" fill="#E0A000"/>
<path d="M19.6589 26.2015C19.4241 27.4324 19.0133 30.5977 21.3021 31.7701C24.2363 33.2355 25.4687 30.246 25.4687 30.246C25.4687 30.246 27.8748 31.9459 29.2833 29.9529C30.0462 28.7806 29.6354 27.4324 28.9899 26.6118C27.3467 25.9084 25.5274 25.4395 23.8255 25.4395C22.2997 25.4395 20.9499 25.8498 19.6589 26.2015Z" fill="white"/>
<path d="M16.138 36.6353L16.0206 37.2214L15.9032 37.749L15.1403 41.7935L14.0253 47.3621C13.4384 47.069 12.8516 46.7759 12.2647 46.4242L12.2061 45.3105L11.9713 39.9764V39.5075V39.273L16.138 36.6353Z" fill="#D39700"/>
<path d="M18.1344 36.0491C18.0757 36.2249 18.0171 36.4008 18.0171 36.5766C17.6063 38.042 16.902 39.5075 16.0218 40.6798C15.787 40.9729 15.4936 41.3832 15.1415 41.7935C14.3786 42.79 13.3222 44.0209 12.2659 45.3105C12.0898 45.545 11.8551 45.7794 11.679 46.0139C10.0945 45.0174 8.68607 43.8451 7.39499 42.5555L7.10157 42.2624C6.69077 41.7935 6.27997 41.3832 5.86917 40.9143C5.81049 40.797 5.69312 40.6798 5.63443 40.6212C5.16495 40.035 4.69547 39.3902 4.28467 38.7454C5.86918 36.4594 7.51237 34.1147 9.09687 32.2976C9.97716 31.1839 10.8574 30.4805 11.679 30.0116C14.7307 28.2531 16.8434 30.4805 16.8434 30.4805C17.3715 30.8908 17.7236 31.4184 18.0171 31.9459C18.0757 32.0631 18.1344 32.1804 18.1931 32.3562C18.4279 33.4699 18.4279 34.7595 18.1344 36.0491Z" fill="#FEBE00"/>
<path d="M29.9886 11.02C29.9886 11.02 35.0942 20.6918 27.1716 22.9192L27.5238 27.0224C27.5238 27.0224 26.8782 29.3084 24.0613 29.1326C21.2444 28.9567 20.8336 25.9673 20.8336 25.9673L21.6552 18.816L23.2397 16.3541L23.7092 14.1853C23.7679 14.1853 27.6411 14.0681 29.9886 11.02Z" fill="#F7C7B9"/>
<path d="M21.507 18.9192C22.6322 18.7754 23.4277 17.7478 23.2837 16.6239C23.1398 15.5 22.1109 14.7055 20.9857 14.8493C19.8605 14.9931 19.0651 16.0207 19.209 17.1446C19.353 18.2685 20.3818 19.063 21.507 18.9192Z" fill="#F7C7B9"/>
<path d="M21.6383 19.5777C21.9 19.2905 21.879 18.8458 21.5915 18.5845C21.304 18.3231 20.8588 18.344 20.5971 18.6312C20.3355 18.9183 20.3564 19.363 20.644 19.6244C20.9315 19.8857 21.3767 19.8648 21.6383 19.5777Z" fill="#FCFFFF"/>
<path d="M27.2302 22.919C27.2302 22.919 25.0588 23.388 23.6504 22.0984C23.6504 22.0984 24.0612 24.3844 27.3476 24.5017L27.2302 22.919Z" fill="#D6735C"/>
<path d="M18.1342 36.0493C18.0756 36.2252 18.0169 36.401 18.0169 36.5769C17.7821 36.6941 17.5474 36.8114 17.3126 36.9286C16.8432 37.1631 16.3737 37.4561 15.9042 37.6906C14.6131 38.394 13.2634 39.156 11.9723 39.8594C10.3878 40.7387 8.86194 41.6179 7.27744 42.4972L6.98401 42.2041C8.6272 41.2662 10.2704 40.3283 11.9136 39.3905C12.3831 39.156 12.7939 38.8629 13.2634 38.6285C14.1436 38.1009 15.0826 37.632 15.9629 37.1044C16.6084 36.7527 17.3127 36.3424 17.9582 35.9907C18.0169 36.108 18.0756 36.0493 18.1342 36.0493Z" fill="#E0A000"/>
<path d="M18.016 32.3564C16.6075 33.3528 15.1991 34.2907 13.732 35.2872C13.6146 35.3458 13.4972 35.463 13.3798 35.5217C12.8517 35.8734 12.3235 36.2837 11.7953 36.6354C9.74134 38.0422 7.74604 39.5076 5.75073 40.9144C5.69205 40.7971 5.57468 40.6799 5.51599 40.6213C7.56998 39.0973 9.68266 37.6319 11.7953 36.1664C12.793 35.463 13.7906 34.7596 14.7883 34.0562C15.6099 33.4701 16.4315 32.9425 17.2531 32.3564C17.4291 32.2391 17.6639 32.0633 17.8399 31.946C17.8986 32.0633 17.9573 32.2391 18.016 32.3564Z" fill="#E0A000"/>
</svg>
