<svg width="22" height="21" viewBox="0 0 22 21" fill="none" xmlns="http://www.w3.org/2000/svg">
<path fill-rule="evenodd" clip-rule="evenodd" d="M11.3395 1.56909C11.9664 1.56909 12.5759 1.81832 13.0128 2.25149C13.4489 2.68721 13.6897 3.28484 13.6713 3.89095C13.6731 4.02743 13.7195 4.1851 13.8035 4.32327C13.9428 4.55215 14.1626 4.71322 14.4235 4.77934C14.6845 4.84207 14.9577 4.80816 15.1897 4.67507C16.3105 4.0554 17.737 4.42669 18.3771 5.50327L18.9226 6.41794C18.9366 6.44253 18.9489 6.46626 18.9594 6.49084C19.5391 7.55132 19.152 8.88645 18.075 9.49594C17.9182 9.58326 17.7913 9.70533 17.7037 9.85283C17.568 10.0809 17.5303 10.3521 17.5986 10.6013C17.6687 10.8557 17.8359 11.0667 18.0715 11.1973C18.603 11.4931 18.9997 11.9916 19.1582 12.5672C19.3166 13.1419 19.23 13.7658 18.9209 14.2804L18.3394 15.2179C17.6993 16.2826 16.2729 16.6514 15.1634 16.0309C15.0154 15.9486 14.8447 15.9037 14.6748 15.8995H14.6696C14.4165 15.8995 14.1564 16.0037 13.9673 16.186C13.7755 16.3716 13.6704 16.6192 13.6722 16.882C13.6661 18.1272 12.6197 19.1343 11.3395 19.1343H10.2423C8.95594 19.1343 7.90954 18.1222 7.90954 16.8769C7.90779 16.7234 7.86226 16.5641 7.77732 16.4259C7.63984 16.1936 7.41742 16.0275 7.16086 15.9614C6.90604 15.8952 6.62671 15.9317 6.39729 16.0605C5.84738 16.3572 5.20028 16.4293 4.60834 16.2682C4.01727 16.1063 3.50677 15.713 3.20729 15.1916L2.66001 14.2787C2.01991 13.2038 2.40082 11.8263 3.50939 11.2058C3.82375 11.0303 4.01902 10.7031 4.01902 10.3521C4.01902 10.0012 3.82375 9.67312 3.50939 9.49764C2.39994 8.87373 2.01991 7.49283 2.65914 6.41794L3.25283 5.47445C3.88417 4.41143 5.31148 4.03675 6.42444 4.65557C6.57592 4.74288 6.74055 4.78697 6.9078 4.78866C7.45333 4.78866 7.90954 4.35294 7.9183 3.8172C7.91479 3.22635 8.1556 2.65924 8.5943 2.23115C9.03475 1.80391 9.61969 1.56909 10.2423 1.56909H11.3395ZM11.3395 2.84064H10.2423C9.97082 2.84064 9.71688 2.94322 9.52512 3.12801C9.33422 3.31366 9.23002 3.56034 9.23177 3.82313C9.21338 5.06247 8.16698 6.06021 6.89991 6.06021C6.49361 6.05597 6.1022 5.95001 5.76244 5.75334C5.28521 5.49056 4.66175 5.65247 4.38242 6.12294L3.7896 7.06643C3.51815 7.5225 3.68452 8.12521 4.16788 8.39732C4.88504 8.79914 5.3325 9.5485 5.3325 10.3521C5.3325 11.1557 4.88504 11.9043 4.16613 12.3069C3.6854 12.5765 3.51903 13.1758 3.79748 13.6421L4.35002 14.5644C4.48662 14.8026 4.70991 14.9746 4.96823 15.045C5.22567 15.1145 5.50938 15.0848 5.74581 14.9577C6.09344 14.7602 6.49799 14.6576 6.90429 14.6576C7.10482 14.6576 7.30534 14.6822 7.50149 14.733C8.09343 14.8873 8.60743 15.2705 8.91216 15.785C9.11006 16.108 9.21951 16.4852 9.22302 16.8701C9.22302 17.4211 9.68011 17.8628 10.2423 17.8628H11.3395C11.899 17.8628 12.3561 17.4236 12.3587 16.882C12.3552 16.2835 12.5969 15.7147 13.0391 15.2866C13.4752 14.8644 14.0846 14.611 14.6941 14.6279C15.0934 14.6373 15.4778 14.7415 15.8167 14.928C16.3044 15.1984 16.927 15.0374 17.209 14.5711L17.7904 13.6327C17.92 13.4166 17.9576 13.1453 17.8885 12.8952C17.8202 12.6452 17.6485 12.4281 17.4174 12.3001C16.8762 11.9984 16.49 11.5118 16.3298 10.9286C16.1713 10.3564 16.258 9.73161 16.5671 9.21705C16.7685 8.87797 17.0636 8.5923 17.4174 8.39563C17.892 8.12691 18.0583 7.52589 17.7825 7.05796C17.7711 7.03931 17.7606 7.01981 17.7519 6.99947L17.2387 6.1382C16.9594 5.66773 16.3377 5.50582 15.8499 5.77454C15.3228 6.07632 14.6958 6.16278 14.0934 6.00935C13.4918 5.85846 12.9874 5.48971 12.6731 4.96922C12.4717 4.6437 12.3622 4.26478 12.3587 3.87908C12.3666 3.58916 12.2615 3.32892 12.0706 3.13819C11.8806 2.9483 11.6135 2.84064 11.3395 2.84064ZM10.7947 7.48104C12.4296 7.48104 13.7597 8.76955 13.7597 10.3522C13.7597 11.9349 12.4296 13.2217 10.7947 13.2217C9.15988 13.2217 7.82977 11.9349 7.82977 10.3522C7.82977 8.76955 9.15988 7.48104 10.7947 7.48104ZM10.7947 8.7526C9.88405 8.7526 9.14324 9.4706 9.14324 10.3522C9.14324 11.2338 9.88405 11.9501 10.7947 11.9501C11.7054 11.9501 12.4462 11.2338 12.4462 10.3522C12.4462 9.4706 11.7054 8.7526 10.7947 8.7526Z" fill="#F9F9F9"/>
</svg>
