<svg width="16" height="17" viewBox="0 0 16 17" fill="none" xmlns="http://www.w3.org/2000/svg">
<g clip-path="url(#clip0_110_328)">
<path fill-rule="evenodd" clip-rule="evenodd" d="M8 0.602783C12.4112 0.602783 16 4.19158 16 8.60278C16 13.014 12.4112 16.6028 8 16.6028C3.5888 16.6028 0 13.014 0 8.60278C0 4.19158 3.5888 0.602783 8 0.602783ZM8 1.80278C4.2504 1.80278 1.2 4.85318 1.2 8.60278C1.2 12.3524 4.2504 15.4028 8 15.4028C11.7496 15.4028 14.8 12.3524 14.8 8.60278C14.8 4.85318 11.7496 1.80278 8 1.80278ZM7.72896 4.6791C8.06096 4.6791 8.32896 4.9479 8.32896 5.2791V8.8167L11.053 10.4407C11.337 10.6111 11.4306 10.9791 11.261 11.2639C11.1482 11.4519 10.949 11.5567 10.745 11.5567C10.6402 11.5567 10.5346 11.5295 10.4378 11.4727L7.42176 9.6735C7.24096 9.5647 7.12896 9.3687 7.12896 9.1575V5.2791C7.12896 4.9479 7.39776 4.6791 7.72896 4.6791Z" fill="#4E4E4E"/>
</g>
<defs>
<clipPath id="clip0_110_328">
<rect width="16" height="17" fill="white"/>
</clipPath>
</defs>
</svg>
