<svg width="23" height="20" viewBox="0 0 23 20" fill="none" xmlns="http://www.w3.org/2000/svg">
<g clip-path="url(#clip0_110_39)">
<path fill-rule="evenodd" clip-rule="evenodd" d="M15.9002 1.00854C19.3582 1.00854 22.171 3.61457 22.171 6.8193V13.7723C22.171 16.976 19.3582 19.583 15.9002 19.583H6.86156C3.40358 19.583 0.589722 16.976 0.589722 13.7723V6.8193C0.589722 3.61457 3.40358 1.00854 6.86156 1.00854H15.9002ZM15.9002 2.46172H6.86156C4.26834 2.46172 2.1582 4.41672 2.1582 6.8193V13.7723C2.1582 16.1748 4.26834 18.1298 6.86156 18.1298H15.9002C18.4934 18.1298 20.6025 16.1748 20.6025 13.7723V13.501L17.1541 13.5016C15.1704 13.5016 13.556 12.0067 13.5549 10.1699C13.5549 8.33119 15.1694 6.83539 17.1541 6.83442L20.6025 6.83384V6.8193C20.6025 4.41672 18.4934 2.46172 15.9002 2.46172ZM20.6025 8.28701L17.1541 8.28759C16.0342 8.28856 15.1234 9.13237 15.1234 10.169C15.1234 11.2046 16.0352 12.0484 17.1541 12.0484L20.6025 12.0478V8.28701ZM17.6325 9.38232C18.0654 9.38232 18.4168 9.70783 18.4168 10.1089C18.4168 10.51 18.0654 10.8355 17.6325 10.8355H17.3063C16.8734 10.8355 16.5221 10.51 16.5221 10.1089C16.5221 9.70783 16.8734 9.38232 17.3063 9.38232H17.6325ZM11.7625 5.40498C12.1954 5.40498 12.5468 5.73049 12.5468 6.13156C12.5468 6.53264 12.1954 6.85815 11.7625 6.85815H6.11706C5.68415 6.85815 5.33281 6.53264 5.33281 6.13156C5.33281 5.73049 5.68415 5.40498 6.11706 5.40498H11.7625Z" fill="#F9F9F9"/>
</g>
<defs>
<clipPath id="clip0_110_39">
<rect width="21.9592" height="18.819" fill="white" transform="translate(0.589722 0.5)"/>
</clipPath>
</defs>
</svg>
